G04 start of page 2 for group 0 idx 0 *
G04 Title: (unknown), top *
G04 Creator: pcb 20140316 *
G04 CreationDate: Tue 12 Jul 2016 01:46:57 AM GMT UTC *
G04 For: ndholmes *
G04 Format: Gerber/RS-274X *
G04 PCB-Dimensions (mil): 1500.00 1250.00 *
G04 PCB-Coordinate-Origin: lower left *
%MOIN*%
%FSLAX25Y25*%
%LNTOP*%
%ADD33C,0.0380*%
%ADD32C,0.0480*%
%ADD31C,0.0472*%
%ADD30C,0.0390*%
%ADD29C,0.1285*%
%ADD28C,0.0150*%
%ADD27C,0.0140*%
%ADD26C,0.0300*%
%ADD25R,0.0200X0.0200*%
%ADD24R,0.0167X0.0167*%
%ADD23R,0.0945X0.0945*%
%ADD22R,0.0360X0.0360*%
%ADD21R,0.0130X0.0130*%
%ADD20C,0.0310*%
%ADD19R,0.0378X0.0378*%
%ADD18R,0.0512X0.0512*%
%ADD17C,0.0600*%
%ADD16C,0.0800*%
%ADD15C,0.2937*%
%ADD14C,0.0250*%
%ADD13C,0.0080*%
%ADD12C,0.0400*%
%ADD11C,0.0001*%
G54D11*G36*
X48118Y106838D02*X48119Y104127D01*
X48156Y103974D01*
X48216Y103829D01*
X48298Y103694D01*
X48401Y103575D01*
X48520Y103472D01*
X48655Y103390D01*
X48800Y103330D01*
X48953Y103293D01*
X49110Y103284D01*
X53047Y103293D01*
X53200Y103330D01*
X53345Y103390D01*
X53480Y103472D01*
X53599Y103575D01*
X53702Y103694D01*
X53784Y103829D01*
X53844Y103974D01*
X53881Y104127D01*
X53890Y104284D01*
X53887Y109000D01*
X76000D01*
Y98000D01*
X46500D01*
Y107534D01*
X47105Y106934D01*
X47240Y106851D01*
X47385Y106791D01*
X47538Y106754D01*
X47695Y106742D01*
X47852Y106754D01*
X48005Y106791D01*
X48118Y106838D01*
G37*
G36*
X28166Y63500D02*X34500D01*
Y47500D01*
X28166D01*
Y52810D01*
X28251Y52846D01*
X28352Y52908D01*
X28442Y52984D01*
X28518Y53074D01*
X28578Y53176D01*
X28795Y53645D01*
X28962Y54134D01*
X29082Y54637D01*
X29155Y55149D01*
X29179Y55665D01*
X29155Y56181D01*
X29082Y56693D01*
X28962Y57196D01*
X28795Y57685D01*
X28583Y58157D01*
X28522Y58258D01*
X28445Y58349D01*
X28355Y58426D01*
X28253Y58488D01*
X28166Y58525D01*
Y63500D01*
G37*
G36*
X23675D02*X28166D01*
Y58525D01*
X28144Y58534D01*
X28028Y58562D01*
X27910Y58571D01*
X27792Y58562D01*
X27676Y58535D01*
X27566Y58489D01*
X27465Y58427D01*
X27375Y58351D01*
X27297Y58260D01*
X27235Y58159D01*
X27189Y58050D01*
X27162Y57934D01*
X27152Y57816D01*
X27161Y57697D01*
X27189Y57582D01*
X27236Y57473D01*
X27394Y57133D01*
X27515Y56777D01*
X27603Y56412D01*
X27655Y56040D01*
X27673Y55665D01*
X27655Y55290D01*
X27603Y54918D01*
X27515Y54553D01*
X27394Y54197D01*
X27240Y53855D01*
X27193Y53747D01*
X27166Y53632D01*
X27156Y53514D01*
X27166Y53397D01*
X27194Y53282D01*
X27239Y53173D01*
X27301Y53072D01*
X27378Y52983D01*
X27468Y52906D01*
X27568Y52845D01*
X27677Y52800D01*
X27792Y52772D01*
X27910Y52763D01*
X28028Y52773D01*
X28142Y52800D01*
X28166Y52810D01*
Y47500D01*
X23675D01*
Y50159D01*
X24189Y50183D01*
X24701Y50256D01*
X25204Y50376D01*
X25693Y50543D01*
X26165Y50755D01*
X26266Y50816D01*
X26357Y50893D01*
X26434Y50983D01*
X26496Y51085D01*
X26542Y51194D01*
X26570Y51310D01*
X26579Y51428D01*
X26570Y51546D01*
X26543Y51662D01*
X26497Y51772D01*
X26435Y51873D01*
X26359Y51963D01*
X26268Y52041D01*
X26167Y52103D01*
X26058Y52149D01*
X25942Y52176D01*
X25824Y52186D01*
X25705Y52177D01*
X25590Y52149D01*
X25481Y52102D01*
X25141Y51944D01*
X24785Y51823D01*
X24420Y51735D01*
X24048Y51683D01*
X23675Y51665D01*
Y59665D01*
X24048Y59647D01*
X24420Y59595D01*
X24785Y59507D01*
X25141Y59386D01*
X25483Y59232D01*
X25591Y59185D01*
X25706Y59158D01*
X25824Y59148D01*
X25941Y59158D01*
X26056Y59186D01*
X26165Y59231D01*
X26266Y59293D01*
X26355Y59370D01*
X26432Y59460D01*
X26493Y59560D01*
X26538Y59669D01*
X26566Y59784D01*
X26575Y59902D01*
X26565Y60020D01*
X26538Y60134D01*
X26492Y60243D01*
X26430Y60344D01*
X26354Y60434D01*
X26264Y60510D01*
X26162Y60570D01*
X25693Y60787D01*
X25204Y60954D01*
X24701Y61074D01*
X24189Y61147D01*
X23675Y61171D01*
Y63500D01*
G37*
G36*
X19180D02*X23675D01*
Y61171D01*
X23673Y61171D01*
X23157Y61147D01*
X22645Y61074D01*
X22142Y60954D01*
X21653Y60787D01*
X21181Y60575D01*
X21080Y60514D01*
X20989Y60437D01*
X20912Y60347D01*
X20850Y60245D01*
X20804Y60136D01*
X20776Y60020D01*
X20767Y59902D01*
X20776Y59784D01*
X20803Y59668D01*
X20849Y59558D01*
X20911Y59457D01*
X20987Y59367D01*
X21078Y59289D01*
X21179Y59227D01*
X21288Y59181D01*
X21404Y59154D01*
X21522Y59144D01*
X21641Y59153D01*
X21756Y59181D01*
X21865Y59228D01*
X22205Y59386D01*
X22561Y59507D01*
X22926Y59595D01*
X23298Y59647D01*
X23673Y59665D01*
X23675Y59665D01*
Y51665D01*
X23673Y51665D01*
X23298Y51683D01*
X22926Y51735D01*
X22561Y51823D01*
X22205Y51944D01*
X21863Y52098D01*
X21755Y52145D01*
X21640Y52172D01*
X21522Y52182D01*
X21405Y52172D01*
X21290Y52144D01*
X21181Y52099D01*
X21080Y52037D01*
X20991Y51960D01*
X20914Y51870D01*
X20853Y51770D01*
X20808Y51661D01*
X20780Y51546D01*
X20771Y51428D01*
X20781Y51310D01*
X20808Y51196D01*
X20854Y51087D01*
X20916Y50986D01*
X20992Y50896D01*
X21082Y50820D01*
X21184Y50760D01*
X21653Y50543D01*
X22142Y50376D01*
X22645Y50256D01*
X23157Y50183D01*
X23673Y50159D01*
X23675Y50159D01*
Y47500D01*
X19180D01*
Y52805D01*
X19202Y52796D01*
X19318Y52768D01*
X19436Y52759D01*
X19554Y52768D01*
X19670Y52795D01*
X19780Y52841D01*
X19881Y52903D01*
X19971Y52979D01*
X20049Y53070D01*
X20111Y53171D01*
X20157Y53280D01*
X20184Y53396D01*
X20194Y53514D01*
X20185Y53633D01*
X20157Y53748D01*
X20110Y53857D01*
X19952Y54197D01*
X19831Y54553D01*
X19743Y54918D01*
X19691Y55290D01*
X19673Y55665D01*
X19691Y56040D01*
X19743Y56412D01*
X19831Y56777D01*
X19952Y57133D01*
X20106Y57475D01*
X20153Y57583D01*
X20180Y57698D01*
X20190Y57816D01*
X20180Y57933D01*
X20152Y58048D01*
X20107Y58157D01*
X20045Y58258D01*
X19968Y58347D01*
X19878Y58424D01*
X19778Y58485D01*
X19669Y58530D01*
X19554Y58558D01*
X19436Y58567D01*
X19318Y58557D01*
X19204Y58530D01*
X19180Y58520D01*
Y63500D01*
G37*
G36*
X10500D02*X19180D01*
Y58520D01*
X19095Y58484D01*
X18994Y58422D01*
X18904Y58346D01*
X18828Y58256D01*
X18768Y58154D01*
X18551Y57685D01*
X18384Y57196D01*
X18264Y56693D01*
X18191Y56181D01*
X18167Y55665D01*
X18191Y55149D01*
X18264Y54637D01*
X18384Y54134D01*
X18551Y53645D01*
X18763Y53173D01*
X18824Y53072D01*
X18901Y52981D01*
X18991Y52904D01*
X19093Y52842D01*
X19180Y52805D01*
Y47500D01*
X10500D01*
Y63500D01*
G37*
G36*
X41833Y75488D02*X41844Y74016D01*
X41884Y73848D01*
X41950Y73688D01*
X42029Y73558D01*
X41950Y73429D01*
X41884Y73269D01*
X41844Y73101D01*
X41833Y72929D01*
X41844Y71457D01*
X41884Y71289D01*
X41950Y71129D01*
X42029Y71000D01*
X41950Y70871D01*
X41884Y70711D01*
X41844Y70543D01*
X41833Y70371D01*
X41844Y68899D01*
X41884Y68731D01*
X41950Y68571D01*
X42041Y68423D01*
X42153Y68291D01*
X42285Y68179D01*
X42433Y68088D01*
X42593Y68022D01*
X42761Y67982D01*
X42933Y67972D01*
X48600Y67981D01*
Y64000D01*
X48600Y64000D01*
Y49080D01*
X47020Y47500D01*
X29500D01*
Y84500D01*
X30608D01*
X30609Y83943D01*
X30646Y83790D01*
X30706Y83645D01*
X30788Y83510D01*
X30891Y83391D01*
X31010Y83288D01*
X31145Y83206D01*
X31290Y83146D01*
X31443Y83109D01*
X31600Y83100D01*
X35357Y83109D01*
X35510Y83146D01*
X35655Y83206D01*
X35790Y83288D01*
X35909Y83391D01*
X36003Y83500D01*
X39382D01*
X39500Y83491D01*
X39970Y83528D01*
X39971Y83528D01*
X40430Y83638D01*
X40866Y83819D01*
X41269Y84065D01*
X41628Y84372D01*
X41705Y84462D01*
X41743Y84500D01*
X51500D01*
Y75318D01*
X51029Y75789D01*
X50993Y75831D01*
X50825Y75974D01*
X50638Y76089D01*
X50434Y76174D01*
X50220Y76225D01*
X50000Y76242D01*
X49945Y76238D01*
X49644D01*
X49619Y76268D01*
X49487Y76380D01*
X49339Y76471D01*
X49179Y76537D01*
X49011Y76577D01*
X48838Y76588D01*
X42761Y76577D01*
X42593Y76537D01*
X42433Y76471D01*
X42285Y76380D01*
X42153Y76268D01*
X42041Y76136D01*
X41950Y75988D01*
X41884Y75828D01*
X41844Y75660D01*
X41833Y75488D01*
G37*
G36*
X61100Y72000D02*X54392D01*
X54387Y72058D01*
X54336Y72272D01*
X54251Y72476D01*
X54136Y72663D01*
X53993Y72831D01*
X53951Y72867D01*
X51029Y75789D01*
X50993Y75831D01*
X50825Y75974D01*
X50638Y76089D01*
X50434Y76174D01*
X50220Y76225D01*
X50000Y76242D01*
X49945Y76238D01*
X49644D01*
X49619Y76268D01*
X49487Y76380D01*
X49339Y76471D01*
X49179Y76537D01*
X49011Y76577D01*
X48838Y76588D01*
X46500Y76584D01*
Y89500D01*
X65500D01*
Y86451D01*
X60827Y86443D01*
X60674Y86406D01*
X60529Y86346D01*
X60394Y86264D01*
X60275Y86161D01*
X60172Y86042D01*
X60090Y85907D01*
X60030Y85762D01*
X59993Y85609D01*
X59984Y85452D01*
X59993Y79391D01*
X60030Y79238D01*
X60090Y79093D01*
X60172Y78958D01*
X60275Y78839D01*
X60394Y78736D01*
X60529Y78654D01*
X60674Y78594D01*
X60827Y78557D01*
X60984Y78548D01*
X65500Y78556D01*
Y76286D01*
X64941D01*
X64886Y76290D01*
X64666Y76273D01*
X64452Y76221D01*
X64248Y76137D01*
X64060Y76022D01*
X64060Y76022D01*
X63893Y75879D01*
X63857Y75837D01*
X61549Y73529D01*
X61507Y73493D01*
X61364Y73325D01*
X61249Y73138D01*
X61164Y72934D01*
X61113Y72720D01*
X61096Y72500D01*
X61100Y72445D01*
Y72000D01*
G37*
G36*
X46500Y97500D02*X76000D01*
Y86500D01*
X46500D01*
Y97500D01*
G37*
G36*
Y99500D02*X76000D01*
Y88500D01*
X46500D01*
Y99500D01*
G37*
G54D12*X63500Y17500D02*X79000D01*
X84000Y22500D01*
X63250Y7500D02*X97500D01*
G54D13*X71000Y26500D02*X68500D01*
X67500Y27500D01*
G54D12*X97500Y7500D02*X104000Y14000D01*
Y22500D01*
G54D14*X34500Y13000D02*Y25000D01*
X35000Y12500D02*X34500Y13000D01*
G54D13*X42750Y7500D02*X49000D01*
X42750Y17500D02*X50000D01*
G54D14*X42750Y12500D02*X35000D01*
G54D12*X56500D02*X63250D01*
G54D13*X49000Y7500D02*X50000Y8500D01*
Y25500D02*Y8500D01*
G54D12*X55000Y14000D02*X56500Y12500D01*
G54D13*X50543Y33000D02*X60230D01*
X60305Y33075D01*
X67500Y27500D02*Y32966D01*
X67391Y33075D01*
X43500Y33043D02*X43457Y33000D01*
Y29043D01*
X45000Y27500D01*
X48000D01*
X50000Y25500D01*
G54D14*X55000D02*Y17500D01*
G54D12*Y26000D02*Y14000D01*
G54D13*X48000Y27500D02*X49250Y26250D01*
X50000Y69000D02*Y62500D01*
X49721Y72279D02*X51500Y70500D01*
Y61500D01*
X55925Y59075D02*X53000Y62000D01*
Y71838D01*
X51500Y63000D02*Y58000D01*
X45886Y69721D02*X49279D01*
X50000Y69000D01*
X45886Y72279D02*X49721D01*
X45886Y74838D02*X49662D01*
X50000D02*X48500D01*
X53000Y71838D02*X50000Y74838D01*
X53000Y71838D02*X52169Y72669D01*
G54D12*X41500Y110500D02*X45000Y114000D01*
X70500Y117500D02*X57000D01*
G54D14*X70595D02*X70500Y117405D01*
G54D12*X33500Y86500D02*X39500D01*
X41500Y88500D01*
Y110500D01*
X69000Y117500D02*X78500D01*
X81500Y114500D01*
G54D14*X80250Y115750D02*X83000Y118500D01*
G54D12*X81500Y114500D02*Y95500D01*
X84000Y93000D01*
G54D14*X80000Y84500D02*Y90500D01*
X83250Y93750D01*
G54D13*X23787Y42000D02*X23673Y41886D01*
X23787Y42000D02*X23673Y41886D01*
G54D14*X34500Y25000D02*X24000Y35500D01*
X15500D01*
X13500Y37500D01*
G54D12*X20500Y86500D02*Y72618D01*
X23673Y69445D01*
G54D14*X13500Y37500D02*Y51500D01*
G54D13*X24000Y42213D02*X43713D01*
X62500Y72500D02*Y64000D01*
X64000Y62500D01*
X63000Y63500D01*
X64500Y68500D02*Y65500D01*
X65500Y64500D01*
X53000Y68500D02*X57500D01*
X69114Y69721D02*X65721D01*
X64500Y68500D01*
X65500Y64500D02*X83000D01*
X85000Y62500D01*
X79348Y52925D02*Y49776D01*
X85000Y62500D02*Y54500D01*
X83500Y53000D01*
X79423D01*
X79348Y52925D01*
X72652D02*Y49776D01*
Y51652D02*Y46348D01*
X74000Y45000D01*
X57500Y42500D02*X51500Y48500D01*
Y60000D01*
Y56000D02*X55000D01*
X50000Y64000D02*Y48500D01*
X43500Y42000D01*
Y33043D01*
X43713Y42213D02*X45500Y44000D01*
G54D14*X62500Y82457D02*X77957D01*
G54D13*X69114Y82071D02*X69500Y82457D01*
G54D14*X77957D02*X80000Y84500D01*
G54D13*X69114Y74838D02*Y82071D01*
Y74886D02*X64886D01*
X62500Y72500D01*
X69114Y72279D02*X81779D01*
X83000Y73500D01*
X76221Y69721D02*X85221D01*
X69114D02*X81500D01*
X69114Y67162D02*X85662D01*
X83500Y81000D02*Y74000D01*
X88000Y72500D02*Y85000D01*
X94000Y75500D02*Y79000D01*
X83500Y74000D02*X82250Y72750D01*
X85221Y69721D02*X88000Y72500D01*
X85662Y67162D02*X94000Y75500D01*
X85662Y67162D02*X88000Y69500D01*
G54D14*X94000Y113000D02*X89500Y117500D01*
X99000Y113000D02*Y118500D01*
X88500D02*X91000Y116000D01*
X83000Y118500D02*X88500D01*
X104000Y113000D02*Y118500D01*
X99000Y108000D02*Y103000D01*
X94000Y108000D02*Y103000D01*
X104000Y108000D02*Y103000D01*
G54D13*X72652Y59075D02*X55925D01*
X53500Y56000D02*X72577D01*
X72652Y55925D01*
X79348Y59075D02*Y55925D01*
Y56848D02*Y61652D01*
X78500Y62500D01*
X64000D01*
G54D12*X84000Y93000D02*X102000D01*
X105500Y89500D01*
Y66500D01*
X109500Y62500D01*
X137500D01*
X118000Y52500D02*X136500D01*
G54D14*X103000D02*X118000D01*
G54D13*Y72500D02*X142000D01*
X145000Y69500D01*
Y45000D01*
X142500Y42500D01*
X57500D01*
X93000Y52500D02*Y47500D01*
X90500Y45000D01*
X74000D02*X90500D01*
X92000Y46500D01*
G54D15*X133500Y17000D03*
X133000Y108000D03*
X17000Y17000D03*
Y108000D03*
G54D11*G36*
X19673Y73445D02*Y65445D01*
X27673D01*
Y73445D01*
X19673D01*
G37*
G54D16*X23673Y55665D03*
Y41886D03*
G54D11*G36*
X80000Y26500D02*Y18500D01*
X88000D01*
Y26500D01*
X80000D01*
G37*
G36*
X90000Y55500D02*Y49500D01*
X96000D01*
Y55500D01*
X90000D01*
G37*
G54D16*X104000Y22500D03*
G54D17*X103000Y52500D03*
G54D11*G36*
X115000Y75500D02*Y69500D01*
X121000D01*
Y75500D01*
X115000D01*
G37*
G54D17*X119000Y62500D03*
X118000Y52500D03*
G54D11*G36*
X133500Y75500D02*Y69500D01*
X139500D01*
Y75500D01*
X133500D01*
G37*
G54D17*X137500Y62500D03*
X136500Y52500D03*
G54D18*X63543Y82893D02*Y82107D01*
X67745Y117405D02*X73255D01*
X67745Y105595D02*X73255D01*
G54D19*X56906Y117984D02*Y113890D01*
G54D20*X94000Y108000D03*
Y113000D03*
X99000Y108000D03*
Y113000D03*
X104000Y108000D03*
Y113000D03*
G54D21*X66811Y67162D02*X71417D01*
X66811Y69721D02*X71417D01*
X66811Y72279D02*X71417D01*
X66811Y74838D02*X71417D01*
G54D18*X56457Y82893D02*Y82107D01*
G54D22*X20500Y87100D02*Y85900D01*
X33400Y87100D02*Y85900D01*
G54D18*X41457Y93393D02*Y92607D01*
X48543Y93393D02*Y92607D01*
G54D19*X51000Y117984D02*Y106174D01*
X45094Y117984D02*Y113890D01*
G54D23*X51000Y104440D02*Y102550D01*
G54D11*G36*
X52885Y112005D02*X55725Y109165D01*
X54305Y107745D01*
X51465Y110585D01*
X52885Y112005D01*
G37*
G36*
X46275Y109165D02*X49115Y112005D01*
X50535Y110585D01*
X47695Y107745D01*
X46275Y109165D01*
G37*
G54D21*X43583Y74838D02*X48189D01*
X43583Y72279D02*X48189D01*
X43583Y69721D02*X48189D01*
X43583Y67162D02*X48189D01*
G54D24*X71717Y59224D02*X73587D01*
X71717Y56075D02*X73587D01*
X71717Y52925D02*X73587D01*
X71717Y49776D02*X73587D01*
X78413D02*X80283D01*
X78413Y52925D02*X80283D01*
X78413Y56075D02*X80283D01*
X78413Y59224D02*X80283D01*
G54D18*X50543Y33393D02*Y32607D01*
X43457Y33393D02*Y32607D01*
X67391Y33468D02*Y32682D01*
X60305Y33468D02*Y32682D01*
G54D25*X39500Y22500D02*X46000D01*
X60000D02*X66500D01*
X39500Y17500D02*X46000D01*
X60000D02*X66500D01*
X39500Y12500D02*X46000D01*
X60000D02*X66500D01*
X39500Y7500D02*X46000D01*
X60000D02*X66500D01*
G54D26*X58500Y106500D03*
Y102500D03*
Y98500D03*
X62500D03*
X66500D03*
X104000Y118500D03*
X99000Y103000D03*
X94000D03*
X99000Y118500D03*
X104000Y103000D03*
X66500Y94500D03*
X88000Y85000D03*
X83500Y81000D03*
X94000Y79000D03*
X62500Y94500D03*
X71000Y26500D03*
X58500Y94500D03*
X41500Y98500D03*
Y102500D03*
Y106500D03*
X54500Y94500D03*
Y90500D03*
X57500Y68500D03*
X55000Y25500D03*
Y21500D03*
Y17500D03*
G54D27*G54D28*G54D27*G54D28*G54D27*G54D28*G54D27*G54D28*G54D27*G54D28*G54D29*G54D30*G54D29*G54D31*G54D32*G54D33*G54D32*G54D33*M02*
