G04 start of page 8 for group -4062 idx -4062 *
G04 Title: (unknown), soldermask *
G04 Creator: pcb 20140316 *
G04 CreationDate: Tue 12 Jul 2016 01:46:57 AM GMT UTC *
G04 For: ndholmes *
G04 Format: Gerber/RS-274X *
G04 PCB-Dimensions (mil): 1500.00 1250.00 *
G04 PCB-Coordinate-Origin: lower left *
%MOIN*%
%FSLAX25Y25*%
%LNBOTTOMMASK*%
%ADD73C,0.0660*%
%ADD72C,0.0860*%
%ADD71C,0.0001*%
%ADD70C,0.0490*%
%ADD69C,0.2997*%
G54D69*X133500Y17000D03*
X133000Y108000D03*
G54D70*X89000Y110500D03*
X109000Y114500D03*
Y106500D03*
G54D69*X17000Y17000D03*
Y108000D03*
G54D71*G36*
X19373Y73745D02*Y65145D01*
X27973D01*
Y73745D01*
X19373D01*
G37*
G54D72*X23673Y55665D03*
Y41886D03*
G54D71*G36*
X79700Y26800D02*Y18200D01*
X88300D01*
Y26800D01*
X79700D01*
G37*
G36*
X89700Y55800D02*Y49200D01*
X96300D01*
Y55800D01*
X89700D01*
G37*
G54D72*X104000Y22500D03*
G54D73*X103000Y52500D03*
G54D71*G36*
X114700Y75800D02*Y69200D01*
X121300D01*
Y75800D01*
X114700D01*
G37*
G54D73*X119000Y62500D03*
X118000Y52500D03*
G54D71*G36*
X133200Y75800D02*Y69200D01*
X139800D01*
Y75800D01*
X133200D01*
G37*
G54D73*X137500Y62500D03*
X136500Y52500D03*
M02*
