G04 start of page 3 for group 1 idx 1 *
G04 Title: (unknown), bottom *
G04 Creator: pcb 20140316 *
G04 CreationDate: Tue 12 Jul 2016 01:46:57 AM GMT UTC *
G04 For: ndholmes *
G04 Format: Gerber/RS-274X *
G04 PCB-Dimensions (mil): 1500.00 1250.00 *
G04 PCB-Coordinate-Origin: lower left *
%MOIN*%
%FSLAX25Y25*%
%LNBOTTOM*%
%ADD47C,0.0380*%
%ADD46C,0.0480*%
%ADD45C,0.0472*%
%ADD44C,0.0390*%
%ADD43C,0.1285*%
%ADD42C,0.0150*%
%ADD41C,0.0140*%
%ADD40C,0.0300*%
%ADD39C,0.0600*%
%ADD38C,0.0800*%
%ADD37C,0.2937*%
%ADD36C,0.0400*%
%ADD35C,0.0080*%
%ADD34C,0.0001*%
G54D34*G36*
X88995Y79600D02*X89945D01*
X90000Y79596D01*
X90220Y79613D01*
X90434Y79664D01*
X90638Y79749D01*
X90825Y79864D01*
X90993Y80007D01*
X91029Y80049D01*
X92600Y81620D01*
Y81074D01*
X92526Y81029D01*
X92227Y80773D01*
X91971Y80474D01*
X91766Y80138D01*
X91615Y79775D01*
X91523Y79392D01*
X91492Y79000D01*
X91523Y78608D01*
X91615Y78225D01*
X91766Y77862D01*
X91971Y77526D01*
X92227Y77227D01*
X92526Y76971D01*
X92862Y76766D01*
X93225Y76615D01*
X93608Y76523D01*
X94000Y76492D01*
X94392Y76523D01*
X94775Y76615D01*
X95138Y76766D01*
X95474Y76971D01*
X95600Y77079D01*
Y74580D01*
X90920Y69900D01*
X88995D01*
Y79600D01*
G37*
G36*
X118000Y14378D02*X118538Y12138D01*
X119482Y9858D01*
X120772Y7753D01*
X122376Y5876D01*
X124253Y4272D01*
X126358Y2982D01*
X128638Y2038D01*
X128795Y2000D01*
X118000D01*
Y14378D01*
G37*
G36*
X140113Y93970D02*X140142Y93982D01*
X142247Y95272D01*
X144124Y96876D01*
X145728Y98753D01*
X147018Y100858D01*
X147962Y103138D01*
X148000Y103295D01*
Y22978D01*
X147518Y24142D01*
X146228Y26247D01*
X144624Y28124D01*
X142747Y29728D01*
X140642Y31018D01*
X140113Y31237D01*
Y50353D01*
X140156Y50360D01*
X140268Y50397D01*
X140373Y50452D01*
X140468Y50522D01*
X140551Y50606D01*
X140619Y50702D01*
X140670Y50808D01*
X140818Y51216D01*
X140922Y51637D01*
X140984Y52067D01*
X141005Y52500D01*
X140984Y52933D01*
X140922Y53363D01*
X140818Y53784D01*
X140675Y54194D01*
X140622Y54300D01*
X140553Y54396D01*
X140470Y54481D01*
X140375Y54551D01*
X140269Y54606D01*
X140157Y54643D01*
X140113Y54651D01*
Y58824D01*
X140153Y58848D01*
X140692Y59308D01*
X141152Y59847D01*
X141522Y60451D01*
X141793Y61105D01*
X141958Y61794D01*
X142000Y62500D01*
X141958Y63206D01*
X141793Y63895D01*
X141522Y64549D01*
X141152Y65153D01*
X140692Y65692D01*
X140153Y66152D01*
X140113Y66176D01*
Y68130D01*
X140183Y68159D01*
X140384Y68283D01*
X140564Y68436D01*
X140717Y68616D01*
X140841Y68817D01*
X140931Y69035D01*
X140986Y69265D01*
X141000Y69500D01*
X140986Y75735D01*
X140931Y75965D01*
X140841Y76183D01*
X140717Y76384D01*
X140564Y76564D01*
X140384Y76717D01*
X140183Y76841D01*
X140113Y76870D01*
Y93970D01*
G37*
G36*
Y66176D02*X139549Y66522D01*
X138895Y66793D01*
X138206Y66958D01*
X137500Y67014D01*
X136794Y66958D01*
X136500Y66888D01*
Y68007D01*
X139735Y68014D01*
X139965Y68069D01*
X140113Y68130D01*
Y66176D01*
G37*
G36*
Y31237D02*X138362Y31962D01*
X136500Y32409D01*
Y47995D01*
X136933Y48016D01*
X137363Y48078D01*
X137784Y48182D01*
X138194Y48325D01*
X138300Y48378D01*
X138396Y48447D01*
X138481Y48530D01*
X138551Y48625D01*
X138606Y48731D01*
X138643Y48843D01*
X138663Y48960D01*
X138664Y49079D01*
X138646Y49196D01*
X138610Y49309D01*
X138557Y49415D01*
X138488Y49512D01*
X138405Y49596D01*
X138309Y49667D01*
X138204Y49721D01*
X138092Y49759D01*
X137975Y49778D01*
X137856Y49779D01*
X137739Y49761D01*
X137626Y49723D01*
X137355Y49624D01*
X137075Y49556D01*
X136789Y49514D01*
X136500Y49500D01*
Y55500D01*
X136789Y55486D01*
X137075Y55444D01*
X137355Y55376D01*
X137628Y55280D01*
X137739Y55242D01*
X137856Y55225D01*
X137974Y55225D01*
X138091Y55245D01*
X138203Y55282D01*
X138307Y55336D01*
X138402Y55406D01*
X138485Y55491D01*
X138554Y55587D01*
X138607Y55692D01*
X138643Y55805D01*
X138660Y55921D01*
X138659Y56039D01*
X138640Y56156D01*
X138603Y56268D01*
X138548Y56373D01*
X138478Y56468D01*
X138394Y56551D01*
X138298Y56619D01*
X138192Y56670D01*
X137784Y56818D01*
X137363Y56922D01*
X136933Y56984D01*
X136500Y57005D01*
Y58112D01*
X136794Y58042D01*
X137500Y57986D01*
X138206Y58042D01*
X138895Y58207D01*
X139549Y58478D01*
X140113Y58824D01*
Y54651D01*
X140040Y54663D01*
X139921Y54664D01*
X139804Y54646D01*
X139691Y54610D01*
X139585Y54557D01*
X139488Y54488D01*
X139404Y54405D01*
X139333Y54309D01*
X139279Y54204D01*
X139241Y54092D01*
X139222Y53975D01*
X139221Y53856D01*
X139239Y53739D01*
X139277Y53626D01*
X139376Y53355D01*
X139444Y53075D01*
X139486Y52789D01*
X139500Y52500D01*
X139486Y52211D01*
X139444Y51925D01*
X139376Y51645D01*
X139280Y51372D01*
X139242Y51261D01*
X139225Y51144D01*
X139225Y51026D01*
X139245Y50909D01*
X139282Y50797D01*
X139336Y50693D01*
X139406Y50598D01*
X139491Y50515D01*
X139587Y50446D01*
X139692Y50393D01*
X139805Y50357D01*
X139921Y50340D01*
X140039Y50341D01*
X140113Y50353D01*
Y31237D01*
G37*
G36*
X136500Y92711D02*X137862Y93038D01*
X140113Y93970D01*
Y76870D01*
X139965Y76931D01*
X139735Y76986D01*
X139500Y77000D01*
X136500Y76993D01*
Y92711D01*
G37*
G36*
X132887Y68130D02*X133035Y68069D01*
X133265Y68014D01*
X133500Y68000D01*
X136500Y68007D01*
Y66888D01*
X136105Y66793D01*
X135451Y66522D01*
X134847Y66152D01*
X134308Y65692D01*
X133848Y65153D01*
X133478Y64549D01*
X133207Y63895D01*
X133042Y63206D01*
X132986Y62500D01*
X133042Y61794D01*
X133207Y61105D01*
X133478Y60451D01*
X133848Y59847D01*
X134308Y59308D01*
X134847Y58848D01*
X135451Y58478D01*
X136105Y58207D01*
X136500Y58112D01*
Y57005D01*
X136067Y56984D01*
X135637Y56922D01*
X135216Y56818D01*
X134806Y56675D01*
X134700Y56622D01*
X134604Y56553D01*
X134519Y56470D01*
X134449Y56375D01*
X134394Y56269D01*
X134357Y56157D01*
X134337Y56040D01*
X134336Y55921D01*
X134354Y55804D01*
X134390Y55691D01*
X134443Y55585D01*
X134512Y55488D01*
X134595Y55404D01*
X134691Y55333D01*
X134796Y55279D01*
X134908Y55241D01*
X135025Y55222D01*
X135144Y55221D01*
X135261Y55239D01*
X135374Y55277D01*
X135645Y55376D01*
X135925Y55444D01*
X136211Y55486D01*
X136500Y55500D01*
Y49500D01*
X136211Y49514D01*
X135925Y49556D01*
X135645Y49624D01*
X135372Y49720D01*
X135261Y49758D01*
X135144Y49775D01*
X135026Y49775D01*
X134909Y49755D01*
X134797Y49718D01*
X134693Y49664D01*
X134598Y49594D01*
X134515Y49509D01*
X134446Y49413D01*
X134393Y49308D01*
X134357Y49195D01*
X134340Y49079D01*
X134341Y48961D01*
X134360Y48844D01*
X134397Y48732D01*
X134452Y48627D01*
X134522Y48532D01*
X134606Y48449D01*
X134702Y48381D01*
X134808Y48330D01*
X135216Y48182D01*
X135637Y48078D01*
X136067Y48016D01*
X136500Y47995D01*
Y32409D01*
X135961Y32539D01*
X133500Y32732D01*
X132887Y32684D01*
Y50349D01*
X132960Y50337D01*
X133079Y50336D01*
X133196Y50354D01*
X133309Y50390D01*
X133415Y50443D01*
X133512Y50512D01*
X133596Y50595D01*
X133667Y50691D01*
X133721Y50796D01*
X133759Y50908D01*
X133778Y51025D01*
X133779Y51144D01*
X133761Y51261D01*
X133723Y51374D01*
X133624Y51645D01*
X133556Y51925D01*
X133514Y52211D01*
X133500Y52500D01*
X133514Y52789D01*
X133556Y53075D01*
X133624Y53355D01*
X133720Y53628D01*
X133758Y53739D01*
X133775Y53856D01*
X133775Y53974D01*
X133755Y54091D01*
X133718Y54203D01*
X133664Y54307D01*
X133594Y54402D01*
X133509Y54485D01*
X133413Y54554D01*
X133308Y54607D01*
X133195Y54643D01*
X133079Y54660D01*
X132961Y54659D01*
X132887Y54647D01*
Y68130D01*
G37*
G36*
Y92277D02*X133000Y92268D01*
X135461Y92461D01*
X136500Y92711D01*
Y76993D01*
X133265Y76986D01*
X133035Y76931D01*
X132887Y76870D01*
Y92277D01*
G37*
G36*
X121613Y97183D02*X121876Y96876D01*
X123753Y95272D01*
X125858Y93982D01*
X128138Y93038D01*
X130539Y92461D01*
X132887Y92277D01*
Y76870D01*
X132817Y76841D01*
X132616Y76717D01*
X132436Y76564D01*
X132283Y76384D01*
X132159Y76183D01*
X132069Y75965D01*
X132014Y75735D01*
X132000Y75500D01*
X132014Y69265D01*
X132069Y69035D01*
X132159Y68817D01*
X132283Y68616D01*
X132436Y68436D01*
X132616Y68283D01*
X132817Y68159D01*
X132887Y68130D01*
Y54647D01*
X132844Y54640D01*
X132732Y54603D01*
X132627Y54548D01*
X132532Y54478D01*
X132449Y54394D01*
X132381Y54298D01*
X132330Y54192D01*
X132182Y53784D01*
X132078Y53363D01*
X132016Y52933D01*
X131995Y52500D01*
X132016Y52067D01*
X132078Y51637D01*
X132182Y51216D01*
X132325Y50806D01*
X132378Y50700D01*
X132447Y50604D01*
X132530Y50519D01*
X132625Y50449D01*
X132731Y50394D01*
X132843Y50357D01*
X132887Y50349D01*
Y32684D01*
X131039Y32539D01*
X128638Y31962D01*
X126358Y31018D01*
X124253Y29728D01*
X122376Y28124D01*
X121613Y27232D01*
Y50353D01*
X121656Y50360D01*
X121768Y50397D01*
X121873Y50452D01*
X121968Y50522D01*
X122051Y50606D01*
X122119Y50702D01*
X122170Y50808D01*
X122318Y51216D01*
X122422Y51637D01*
X122484Y52067D01*
X122505Y52500D01*
X122484Y52933D01*
X122422Y53363D01*
X122318Y53784D01*
X122175Y54194D01*
X122122Y54300D01*
X122053Y54396D01*
X121970Y54481D01*
X121875Y54551D01*
X121769Y54606D01*
X121657Y54643D01*
X121613Y54651D01*
Y58824D01*
X121653Y58848D01*
X122192Y59308D01*
X122652Y59847D01*
X123022Y60451D01*
X123293Y61105D01*
X123458Y61794D01*
X123500Y62500D01*
X123458Y63206D01*
X123293Y63895D01*
X123022Y64549D01*
X122652Y65153D01*
X122192Y65692D01*
X121653Y66152D01*
X121613Y66176D01*
Y68130D01*
X121683Y68159D01*
X121884Y68283D01*
X122064Y68436D01*
X122217Y68616D01*
X122341Y68817D01*
X122431Y69035D01*
X122486Y69265D01*
X122500Y69500D01*
X122486Y75735D01*
X122431Y75965D01*
X122341Y76183D01*
X122217Y76384D01*
X122064Y76564D01*
X121884Y76717D01*
X121683Y76841D01*
X121613Y76870D01*
Y97183D01*
G37*
G36*
Y66176D02*X121049Y66522D01*
X120395Y66793D01*
X119706Y66958D01*
X119000Y67014D01*
X118294Y66958D01*
X118000Y66888D01*
Y68007D01*
X121235Y68014D01*
X121465Y68069D01*
X121613Y68130D01*
Y66176D01*
G37*
G36*
Y27232D02*X120772Y26247D01*
X119482Y24142D01*
X118538Y21862D01*
X118000Y19622D01*
Y47995D01*
X118433Y48016D01*
X118863Y48078D01*
X119284Y48182D01*
X119694Y48325D01*
X119800Y48378D01*
X119896Y48447D01*
X119981Y48530D01*
X120051Y48625D01*
X120106Y48731D01*
X120143Y48843D01*
X120163Y48960D01*
X120164Y49079D01*
X120146Y49196D01*
X120110Y49309D01*
X120057Y49415D01*
X119988Y49512D01*
X119905Y49596D01*
X119809Y49667D01*
X119704Y49721D01*
X119592Y49759D01*
X119475Y49778D01*
X119356Y49779D01*
X119239Y49761D01*
X119126Y49723D01*
X118855Y49624D01*
X118575Y49556D01*
X118289Y49514D01*
X118000Y49500D01*
Y55500D01*
X118289Y55486D01*
X118575Y55444D01*
X118855Y55376D01*
X119128Y55280D01*
X119239Y55242D01*
X119356Y55225D01*
X119474Y55225D01*
X119591Y55245D01*
X119703Y55282D01*
X119807Y55336D01*
X119902Y55406D01*
X119985Y55491D01*
X120054Y55587D01*
X120107Y55692D01*
X120143Y55805D01*
X120160Y55921D01*
X120159Y56039D01*
X120140Y56156D01*
X120103Y56268D01*
X120048Y56373D01*
X119978Y56468D01*
X119894Y56551D01*
X119798Y56619D01*
X119692Y56670D01*
X119284Y56818D01*
X118863Y56922D01*
X118433Y56984D01*
X118000Y57005D01*
Y58112D01*
X118294Y58042D01*
X119000Y57986D01*
X119706Y58042D01*
X120395Y58207D01*
X121049Y58478D01*
X121613Y58824D01*
Y54651D01*
X121540Y54663D01*
X121421Y54664D01*
X121304Y54646D01*
X121191Y54610D01*
X121085Y54557D01*
X120988Y54488D01*
X120904Y54405D01*
X120833Y54309D01*
X120779Y54204D01*
X120741Y54092D01*
X120722Y53975D01*
X120721Y53856D01*
X120739Y53739D01*
X120777Y53626D01*
X120876Y53355D01*
X120944Y53075D01*
X120986Y52789D01*
X121000Y52500D01*
X120986Y52211D01*
X120944Y51925D01*
X120876Y51645D01*
X120780Y51372D01*
X120742Y51261D01*
X120725Y51144D01*
X120725Y51026D01*
X120745Y50909D01*
X120782Y50797D01*
X120836Y50693D01*
X120906Y50598D01*
X120991Y50515D01*
X121087Y50446D01*
X121192Y50393D01*
X121305Y50357D01*
X121421Y50340D01*
X121539Y50341D01*
X121613Y50353D01*
Y27232D01*
G37*
G36*
X118000Y103295D02*X118038Y103138D01*
X118982Y100858D01*
X120272Y98753D01*
X121613Y97183D01*
Y76870D01*
X121465Y76931D01*
X121235Y76986D01*
X121000Y77000D01*
X118000Y76993D01*
Y103295D01*
G37*
G36*
Y123000D02*X128295D01*
X128138Y122962D01*
X125858Y122018D01*
X123753Y120728D01*
X121876Y119124D01*
X120272Y117247D01*
X118982Y115142D01*
X118038Y112862D01*
X118000Y112705D01*
Y123000D01*
G37*
G36*
X114387Y68130D02*X114535Y68069D01*
X114765Y68014D01*
X115000Y68000D01*
X118000Y68007D01*
Y66888D01*
X117605Y66793D01*
X116951Y66522D01*
X116347Y66152D01*
X115808Y65692D01*
X115348Y65153D01*
X114978Y64549D01*
X114707Y63895D01*
X114542Y63206D01*
X114486Y62500D01*
X114542Y61794D01*
X114707Y61105D01*
X114978Y60451D01*
X115348Y59847D01*
X115808Y59308D01*
X116347Y58848D01*
X116951Y58478D01*
X117605Y58207D01*
X118000Y58112D01*
Y57005D01*
X117567Y56984D01*
X117137Y56922D01*
X116716Y56818D01*
X116306Y56675D01*
X116200Y56622D01*
X116104Y56553D01*
X116019Y56470D01*
X115949Y56375D01*
X115894Y56269D01*
X115857Y56157D01*
X115837Y56040D01*
X115836Y55921D01*
X115854Y55804D01*
X115890Y55691D01*
X115943Y55585D01*
X116012Y55488D01*
X116095Y55404D01*
X116191Y55333D01*
X116296Y55279D01*
X116408Y55241D01*
X116525Y55222D01*
X116644Y55221D01*
X116761Y55239D01*
X116874Y55277D01*
X117145Y55376D01*
X117425Y55444D01*
X117711Y55486D01*
X118000Y55500D01*
Y49500D01*
X117711Y49514D01*
X117425Y49556D01*
X117145Y49624D01*
X116872Y49720D01*
X116761Y49758D01*
X116644Y49775D01*
X116526Y49775D01*
X116409Y49755D01*
X116297Y49718D01*
X116193Y49664D01*
X116098Y49594D01*
X116015Y49509D01*
X115946Y49413D01*
X115893Y49308D01*
X115857Y49195D01*
X115840Y49079D01*
X115841Y48961D01*
X115860Y48844D01*
X115897Y48732D01*
X115952Y48627D01*
X116022Y48532D01*
X116106Y48449D01*
X116202Y48381D01*
X116308Y48330D01*
X116716Y48182D01*
X117137Y48078D01*
X117567Y48016D01*
X118000Y47995D01*
Y19622D01*
X117961Y19461D01*
X117768Y17000D01*
X117961Y14539D01*
X118000Y14378D01*
Y2000D01*
X114387D01*
Y50349D01*
X114460Y50337D01*
X114579Y50336D01*
X114696Y50354D01*
X114809Y50390D01*
X114915Y50443D01*
X115012Y50512D01*
X115096Y50595D01*
X115167Y50691D01*
X115221Y50796D01*
X115259Y50908D01*
X115278Y51025D01*
X115279Y51144D01*
X115261Y51261D01*
X115223Y51374D01*
X115124Y51645D01*
X115056Y51925D01*
X115014Y52211D01*
X115000Y52500D01*
X115014Y52789D01*
X115056Y53075D01*
X115124Y53355D01*
X115220Y53628D01*
X115258Y53739D01*
X115275Y53856D01*
X115275Y53974D01*
X115255Y54091D01*
X115218Y54203D01*
X115164Y54307D01*
X115094Y54402D01*
X115009Y54485D01*
X114913Y54554D01*
X114808Y54607D01*
X114695Y54643D01*
X114579Y54660D01*
X114461Y54659D01*
X114387Y54647D01*
Y68130D01*
G37*
G36*
Y123000D02*X118000D01*
Y112705D01*
X117461Y110461D01*
X117268Y108000D01*
X117461Y105539D01*
X118000Y103295D01*
Y76993D01*
X114765Y76986D01*
X114535Y76931D01*
X114387Y76870D01*
Y123000D01*
G37*
G36*
X108995D02*X114387D01*
Y76870D01*
X114317Y76841D01*
X114116Y76717D01*
X113936Y76564D01*
X113783Y76384D01*
X113659Y76183D01*
X113569Y75965D01*
X113514Y75735D01*
X113500Y75500D01*
X113514Y69265D01*
X113569Y69035D01*
X113659Y68817D01*
X113783Y68616D01*
X113936Y68436D01*
X114116Y68283D01*
X114317Y68159D01*
X114387Y68130D01*
Y54647D01*
X114344Y54640D01*
X114232Y54603D01*
X114127Y54548D01*
X114032Y54478D01*
X113949Y54394D01*
X113881Y54298D01*
X113830Y54192D01*
X113682Y53784D01*
X113578Y53363D01*
X113516Y52933D01*
X113495Y52500D01*
X113516Y52067D01*
X113578Y51637D01*
X113682Y51216D01*
X113825Y50806D01*
X113878Y50700D01*
X113947Y50604D01*
X114030Y50519D01*
X114125Y50449D01*
X114231Y50394D01*
X114343Y50357D01*
X114387Y50349D01*
Y2000D01*
X108995D01*
Y20188D01*
X109247Y20795D01*
X109449Y21637D01*
X109500Y22500D01*
X109449Y23363D01*
X109247Y24205D01*
X108995Y24812D01*
Y103541D01*
X109000Y103541D01*
X109463Y103577D01*
X109914Y103686D01*
X110343Y103863D01*
X110739Y104106D01*
X111092Y104408D01*
X111394Y104761D01*
X111637Y105157D01*
X111814Y105586D01*
X111923Y106037D01*
X111950Y106500D01*
X111923Y106963D01*
X111814Y107414D01*
X111637Y107843D01*
X111394Y108239D01*
X111092Y108592D01*
X110739Y108894D01*
X110343Y109137D01*
X109914Y109314D01*
X109463Y109423D01*
X109000Y109459D01*
X108995Y109459D01*
Y111541D01*
X109000Y111541D01*
X109463Y111577D01*
X109914Y111686D01*
X110343Y111863D01*
X110739Y112106D01*
X111092Y112408D01*
X111394Y112761D01*
X111637Y113157D01*
X111814Y113586D01*
X111923Y114037D01*
X111950Y114500D01*
X111923Y114963D01*
X111814Y115414D01*
X111637Y115843D01*
X111394Y116239D01*
X111092Y116592D01*
X110739Y116894D01*
X110343Y117137D01*
X109914Y117314D01*
X109463Y117423D01*
X109000Y117459D01*
X108995Y117459D01*
Y123000D01*
G37*
G36*
X102993Y17086D02*X103137Y17051D01*
X104000Y16983D01*
X104863Y17051D01*
X105705Y17253D01*
X106505Y17584D01*
X107243Y18037D01*
X107901Y18599D01*
X108463Y19257D01*
X108916Y19995D01*
X108995Y20188D01*
Y2000D01*
X102993D01*
Y17086D01*
G37*
G36*
Y123000D02*X108995D01*
Y117459D01*
X108537Y117423D01*
X108086Y117314D01*
X107657Y117137D01*
X107261Y116894D01*
X106908Y116592D01*
X106606Y116239D01*
X106363Y115843D01*
X106186Y115414D01*
X106077Y114963D01*
X106041Y114500D01*
X106077Y114037D01*
X106186Y113586D01*
X106363Y113157D01*
X106606Y112761D01*
X106908Y112408D01*
X107261Y112106D01*
X107657Y111863D01*
X108086Y111686D01*
X108537Y111577D01*
X108995Y111541D01*
Y109459D01*
X108537Y109423D01*
X108086Y109314D01*
X107657Y109137D01*
X107261Y108894D01*
X106908Y108592D01*
X106606Y108239D01*
X106363Y107843D01*
X106186Y107414D01*
X106077Y106963D01*
X106041Y106500D01*
X106077Y106037D01*
X106186Y105586D01*
X106363Y105157D01*
X106606Y104761D01*
X106908Y104408D01*
X107261Y104106D01*
X107657Y103863D01*
X108086Y103686D01*
X108537Y103577D01*
X108995Y103541D01*
Y24812D01*
X108916Y25005D01*
X108463Y25743D01*
X107901Y26401D01*
X107243Y26963D01*
X106505Y27416D01*
X105705Y27747D01*
X104863Y27949D01*
X104000Y28017D01*
X103137Y27949D01*
X102993Y27914D01*
Y47987D01*
X103000Y47986D01*
X103706Y48042D01*
X104395Y48207D01*
X105049Y48478D01*
X105653Y48848D01*
X106192Y49308D01*
X106652Y49847D01*
X107022Y50451D01*
X107293Y51105D01*
X107458Y51794D01*
X107500Y52500D01*
X107458Y53206D01*
X107293Y53895D01*
X107022Y54549D01*
X106652Y55153D01*
X106192Y55692D01*
X105653Y56152D01*
X105049Y56522D01*
X104395Y56793D01*
X103706Y56958D01*
X103000Y57014D01*
X102993Y57013D01*
Y94513D01*
X104951Y96471D01*
X104993Y96507D01*
X105136Y96674D01*
X105136Y96675D01*
X105251Y96862D01*
X105336Y97066D01*
X105387Y97280D01*
X105404Y97500D01*
X105400Y97555D01*
Y100926D01*
X105474Y100971D01*
X105773Y101227D01*
X106029Y101526D01*
X106234Y101862D01*
X106385Y102225D01*
X106477Y102608D01*
X106500Y103000D01*
X106477Y103392D01*
X106385Y103775D01*
X106234Y104138D01*
X106029Y104474D01*
X105773Y104773D01*
X105474Y105029D01*
X105138Y105234D01*
X104775Y105385D01*
X104392Y105477D01*
X104000Y105508D01*
X103608Y105477D01*
X103225Y105385D01*
X102993Y105289D01*
Y123000D01*
G37*
G36*
Y27914D02*X102295Y27747D01*
X101495Y27416D01*
X100757Y26963D01*
X100099Y26401D01*
X99537Y25743D01*
X99084Y25005D01*
X98753Y24205D01*
X98551Y23363D01*
X98483Y22500D01*
X98551Y21637D01*
X98753Y20795D01*
X99084Y19995D01*
X99537Y19257D01*
X100099Y18599D01*
X100757Y18037D01*
X101495Y17584D01*
X102295Y17253D01*
X102993Y17086D01*
Y2000D01*
X88995D01*
Y17378D01*
X89064Y17436D01*
X89217Y17616D01*
X89341Y17817D01*
X89431Y18035D01*
X89486Y18265D01*
X89500Y18500D01*
X89486Y26735D01*
X89431Y26965D01*
X89341Y27183D01*
X89217Y27384D01*
X89064Y27564D01*
X88995Y27622D01*
Y48385D01*
X89116Y48283D01*
X89317Y48159D01*
X89535Y48069D01*
X89765Y48014D01*
X90000Y48000D01*
X96235Y48014D01*
X96465Y48069D01*
X96683Y48159D01*
X96884Y48283D01*
X97064Y48436D01*
X97217Y48616D01*
X97341Y48817D01*
X97431Y49035D01*
X97486Y49265D01*
X97500Y49500D01*
X97486Y55735D01*
X97431Y55965D01*
X97341Y56183D01*
X97217Y56384D01*
X97064Y56564D01*
X96884Y56717D01*
X96683Y56841D01*
X96465Y56931D01*
X96235Y56986D01*
X96000Y57000D01*
X89765Y56986D01*
X89535Y56931D01*
X89317Y56841D01*
X89116Y56717D01*
X88995Y56615D01*
Y67100D01*
X91445D01*
X91500Y67096D01*
X91720Y67113D01*
X91934Y67164D01*
X92138Y67249D01*
X92325Y67364D01*
X92493Y67507D01*
X92529Y67549D01*
X97951Y72971D01*
X97993Y73007D01*
X98136Y73174D01*
X98136Y73175D01*
X98251Y73362D01*
X98336Y73566D01*
X98387Y73780D01*
X98404Y74000D01*
X98400Y74055D01*
Y91920D01*
X99580Y93100D01*
X100945D01*
X101000Y93096D01*
X101220Y93113D01*
X101434Y93164D01*
X101638Y93249D01*
X101825Y93364D01*
X101993Y93507D01*
X102029Y93549D01*
X102993Y94513D01*
Y57013D01*
X102294Y56958D01*
X101605Y56793D01*
X100951Y56522D01*
X100347Y56152D01*
X99808Y55692D01*
X99348Y55153D01*
X98978Y54549D01*
X98707Y53895D01*
X98542Y53206D01*
X98486Y52500D01*
X98542Y51794D01*
X98707Y51105D01*
X98978Y50451D01*
X99348Y49847D01*
X99808Y49308D01*
X100347Y48848D01*
X100951Y48478D01*
X101605Y48207D01*
X102294Y48042D01*
X102993Y47987D01*
Y27914D01*
G37*
G36*
X88995Y123000D02*X102993D01*
Y105289D01*
X102882Y105243D01*
X102836Y105434D01*
X102751Y105638D01*
X102636Y105825D01*
X102636Y105826D01*
X102493Y105993D01*
X102451Y106029D01*
X100400Y108080D01*
Y116426D01*
X100474Y116471D01*
X100773Y116727D01*
X101029Y117026D01*
X101234Y117362D01*
X101385Y117725D01*
X101477Y118108D01*
X101500Y118500D01*
X101477Y118892D01*
X101385Y119275D01*
X101234Y119638D01*
X101029Y119974D01*
X100773Y120273D01*
X100474Y120529D01*
X100138Y120734D01*
X99775Y120885D01*
X99392Y120977D01*
X99000Y121008D01*
X98608Y120977D01*
X98225Y120885D01*
X97862Y120734D01*
X97526Y120529D01*
X97227Y120273D01*
X96971Y119974D01*
X96766Y119638D01*
X96615Y119275D01*
X96523Y118892D01*
X96492Y118500D01*
X96523Y118108D01*
X96615Y117725D01*
X96766Y117362D01*
X96971Y117026D01*
X97227Y116727D01*
X97526Y116471D01*
X97600Y116426D01*
Y107555D01*
X97596Y107500D01*
X97613Y107280D01*
X97664Y107066D01*
X97749Y106862D01*
X97864Y106675D01*
X97864Y106674D01*
X98007Y106507D01*
X98049Y106471D01*
X99013Y105507D01*
X99000Y105508D01*
X98608Y105477D01*
X98225Y105385D01*
X97862Y105234D01*
X97526Y105029D01*
X97227Y104773D01*
X96971Y104474D01*
X96766Y104138D01*
X96615Y103775D01*
X96523Y103392D01*
X96497Y103056D01*
X96477Y103392D01*
X96385Y103775D01*
X96234Y104138D01*
X96029Y104474D01*
X95773Y104773D01*
X95474Y105029D01*
X95138Y105234D01*
X94775Y105385D01*
X94392Y105477D01*
X94000Y105508D01*
X93608Y105477D01*
X93225Y105385D01*
X92862Y105234D01*
X92526Y105029D01*
X92227Y104773D01*
X91971Y104474D01*
X91766Y104138D01*
X91615Y103775D01*
X91523Y103392D01*
X91492Y103000D01*
X91523Y102608D01*
X91543Y102523D01*
X88995Y99975D01*
Y107541D01*
X89000Y107541D01*
X89463Y107577D01*
X89914Y107686D01*
X90343Y107863D01*
X90739Y108106D01*
X91092Y108408D01*
X91394Y108761D01*
X91637Y109157D01*
X91814Y109586D01*
X91923Y110037D01*
X91950Y110500D01*
X91923Y110963D01*
X91814Y111414D01*
X91637Y111843D01*
X91394Y112239D01*
X91092Y112592D01*
X90739Y112894D01*
X90343Y113137D01*
X89914Y113314D01*
X89463Y113423D01*
X89000Y113459D01*
X88995Y113459D01*
Y123000D01*
G37*
G36*
Y27622D02*X88884Y27717D01*
X88683Y27841D01*
X88465Y27931D01*
X88235Y27986D01*
X88000Y28000D01*
X80746Y27988D01*
Y67100D01*
X88995D01*
Y56615D01*
X88936Y56564D01*
X88783Y56384D01*
X88659Y56183D01*
X88569Y55965D01*
X88514Y55735D01*
X88500Y55500D01*
X88514Y49265D01*
X88569Y49035D01*
X88659Y48817D01*
X88783Y48616D01*
X88936Y48436D01*
X88995Y48385D01*
Y27622D01*
G37*
G36*
Y2000D02*X80746D01*
Y17001D01*
X88235Y17014D01*
X88465Y17069D01*
X88683Y17159D01*
X88884Y17283D01*
X88995Y17378D01*
Y2000D01*
G37*
G36*
X80746Y123000D02*X88995D01*
Y113459D01*
X88537Y113423D01*
X88086Y113314D01*
X87657Y113137D01*
X87261Y112894D01*
X86908Y112592D01*
X86606Y112239D01*
X86363Y111843D01*
X86186Y111414D01*
X86077Y110963D01*
X86041Y110500D01*
X86077Y110037D01*
X86186Y109586D01*
X86363Y109157D01*
X86606Y108761D01*
X86908Y108408D01*
X87261Y108106D01*
X87657Y107863D01*
X88086Y107686D01*
X88537Y107577D01*
X88995Y107541D01*
Y99975D01*
X87049Y98029D01*
X87007Y97993D01*
X86864Y97825D01*
X86749Y97638D01*
X86664Y97434D01*
X86613Y97220D01*
X86613Y97219D01*
X86596Y97000D01*
X86600Y96945D01*
Y87191D01*
X86467Y87110D01*
X86156Y86844D01*
X85890Y86533D01*
X85676Y86184D01*
X85520Y85806D01*
X85424Y85408D01*
X85392Y85000D01*
X85424Y84592D01*
X85520Y84194D01*
X85676Y83816D01*
X85890Y83467D01*
X86156Y83156D01*
X86467Y82890D01*
X86816Y82676D01*
X87194Y82520D01*
X87592Y82424D01*
X87898Y82400D01*
X85574D01*
X85529Y82474D01*
X85273Y82773D01*
X84974Y83029D01*
X84638Y83234D01*
X84275Y83385D01*
X83892Y83477D01*
X83500Y83508D01*
X83108Y83477D01*
X82725Y83385D01*
X82362Y83234D01*
X82026Y83029D01*
X81727Y82773D01*
X81471Y82474D01*
X81266Y82138D01*
X81115Y81775D01*
X81023Y81392D01*
X80992Y81000D01*
X81023Y80608D01*
X81115Y80225D01*
X81266Y79862D01*
X81471Y79526D01*
X81727Y79227D01*
X82026Y78971D01*
X82362Y78766D01*
X82725Y78615D01*
X83108Y78523D01*
X83500Y78492D01*
X83892Y78523D01*
X84275Y78615D01*
X84638Y78766D01*
X84974Y78971D01*
X85273Y79227D01*
X85529Y79526D01*
X85574Y79600D01*
X88995D01*
Y69900D01*
X80746D01*
Y123000D01*
G37*
G36*
X48250D02*X80746D01*
Y69900D01*
X59574D01*
X59529Y69974D01*
X59273Y70273D01*
X58974Y70529D01*
X58638Y70734D01*
X58275Y70885D01*
X57892Y70977D01*
X57500Y71008D01*
X57108Y70977D01*
X56725Y70885D01*
X56362Y70734D01*
X56026Y70529D01*
X55727Y70273D01*
X55471Y69974D01*
X55266Y69638D01*
X55115Y69275D01*
X55023Y68892D01*
X54992Y68500D01*
X55023Y68108D01*
X55115Y67725D01*
X55266Y67362D01*
X55471Y67026D01*
X55727Y66727D01*
X56026Y66471D01*
X56362Y66266D01*
X56725Y66115D01*
X57108Y66023D01*
X57500Y65992D01*
X57892Y66023D01*
X58275Y66115D01*
X58638Y66266D01*
X58974Y66471D01*
X59273Y66727D01*
X59529Y67026D01*
X59574Y67100D01*
X80746D01*
Y27988D01*
X79765Y27986D01*
X79535Y27931D01*
X79317Y27841D01*
X79116Y27717D01*
X78936Y27564D01*
X78783Y27384D01*
X78659Y27183D01*
X78569Y26965D01*
X78514Y26735D01*
X78500Y26500D01*
X78514Y18265D01*
X78569Y18035D01*
X78659Y17817D01*
X78783Y17616D01*
X78936Y17436D01*
X79116Y17283D01*
X79317Y17159D01*
X79535Y17069D01*
X79765Y17014D01*
X80000Y17000D01*
X80746Y17001D01*
Y2000D01*
X48250D01*
Y57083D01*
X51700Y53633D01*
Y17500D01*
X51731Y16982D01*
X51852Y16477D01*
X52051Y15997D01*
X52322Y15554D01*
X52659Y15159D01*
X53054Y14822D01*
X53497Y14551D01*
X53977Y14352D01*
X54482Y14231D01*
X55000Y14190D01*
X55518Y14231D01*
X56023Y14352D01*
X56503Y14551D01*
X56946Y14822D01*
X57341Y15159D01*
X57678Y15554D01*
X57949Y15997D01*
X58148Y16477D01*
X58269Y16982D01*
X58300Y17500D01*
Y54871D01*
X58310Y55000D01*
X58269Y55517D01*
X58269Y55518D01*
X58148Y56023D01*
X57949Y56503D01*
X57678Y56946D01*
X57341Y57341D01*
X57242Y57425D01*
X48250Y66417D01*
Y123000D01*
G37*
G36*
X28166D02*X48250D01*
Y66417D01*
X44800Y69867D01*
Y106500D01*
X44769Y107018D01*
X44648Y107523D01*
X44449Y108003D01*
X44178Y108446D01*
X43841Y108841D01*
X43446Y109178D01*
X43003Y109449D01*
X42523Y109648D01*
X42018Y109769D01*
X41500Y109810D01*
X40982Y109769D01*
X40477Y109648D01*
X39997Y109449D01*
X39554Y109178D01*
X39159Y108841D01*
X38822Y108446D01*
X38551Y108003D01*
X38352Y107523D01*
X38231Y107018D01*
X38200Y106500D01*
Y68629D01*
X38190Y68500D01*
X38231Y67982D01*
X38231Y67982D01*
X38352Y67477D01*
X38551Y66997D01*
X38822Y66554D01*
X39159Y66159D01*
X39258Y66075D01*
X48250Y57083D01*
Y2000D01*
X28166D01*
Y5924D01*
X29728Y7753D01*
X31018Y9858D01*
X31962Y12138D01*
X32539Y14539D01*
X32684Y17000D01*
X32539Y19461D01*
X31962Y21862D01*
X31018Y24142D01*
X29728Y26247D01*
X28166Y28076D01*
Y38691D01*
X28589Y39381D01*
X28920Y40181D01*
X29122Y41023D01*
X29173Y41886D01*
X29122Y42749D01*
X28920Y43591D01*
X28589Y44391D01*
X28166Y45081D01*
Y52810D01*
X28251Y52846D01*
X28352Y52908D01*
X28442Y52984D01*
X28518Y53074D01*
X28578Y53176D01*
X28795Y53645D01*
X28962Y54134D01*
X29082Y54637D01*
X29155Y55149D01*
X29179Y55665D01*
X29155Y56181D01*
X29082Y56693D01*
X28962Y57196D01*
X28795Y57685D01*
X28583Y58157D01*
X28522Y58258D01*
X28445Y58349D01*
X28355Y58426D01*
X28253Y58488D01*
X28166Y58525D01*
Y64025D01*
X28356Y64104D01*
X28557Y64228D01*
X28737Y64381D01*
X28890Y64561D01*
X29014Y64762D01*
X29104Y64980D01*
X29159Y65210D01*
X29173Y65445D01*
X29159Y73680D01*
X29104Y73910D01*
X29014Y74128D01*
X28890Y74329D01*
X28737Y74509D01*
X28557Y74662D01*
X28356Y74786D01*
X28166Y74865D01*
Y96924D01*
X29728Y98753D01*
X31018Y100858D01*
X31962Y103138D01*
X32539Y105539D01*
X32684Y108000D01*
X32539Y110461D01*
X31962Y112862D01*
X31018Y115142D01*
X29728Y117247D01*
X28166Y119076D01*
Y123000D01*
G37*
G36*
Y74865D02*X28138Y74876D01*
X27908Y74931D01*
X27673Y74945D01*
X23673Y74938D01*
Y93788D01*
X24142Y93982D01*
X26247Y95272D01*
X28124Y96876D01*
X28166Y96924D01*
Y74865D01*
G37*
G36*
Y45081D02*X28136Y45129D01*
X27574Y45787D01*
X26916Y46349D01*
X26178Y46802D01*
X25378Y47133D01*
X24536Y47335D01*
X23673Y47403D01*
Y50159D01*
X24189Y50183D01*
X24701Y50256D01*
X25204Y50376D01*
X25693Y50543D01*
X26165Y50755D01*
X26266Y50816D01*
X26357Y50893D01*
X26434Y50983D01*
X26496Y51085D01*
X26542Y51194D01*
X26570Y51310D01*
X26579Y51428D01*
X26570Y51546D01*
X26543Y51662D01*
X26497Y51772D01*
X26435Y51873D01*
X26359Y51963D01*
X26268Y52041D01*
X26167Y52103D01*
X26058Y52149D01*
X25942Y52176D01*
X25824Y52186D01*
X25705Y52177D01*
X25590Y52149D01*
X25481Y52102D01*
X25141Y51944D01*
X24785Y51823D01*
X24420Y51735D01*
X24048Y51683D01*
X23673Y51665D01*
Y59665D01*
X24048Y59647D01*
X24420Y59595D01*
X24785Y59507D01*
X25141Y59386D01*
X25483Y59232D01*
X25591Y59185D01*
X25706Y59158D01*
X25824Y59148D01*
X25941Y59158D01*
X26056Y59186D01*
X26165Y59231D01*
X26266Y59293D01*
X26355Y59370D01*
X26432Y59460D01*
X26493Y59560D01*
X26538Y59669D01*
X26566Y59784D01*
X26575Y59902D01*
X26565Y60020D01*
X26538Y60134D01*
X26492Y60243D01*
X26430Y60344D01*
X26354Y60434D01*
X26264Y60510D01*
X26162Y60570D01*
X25693Y60787D01*
X25204Y60954D01*
X24701Y61074D01*
X24189Y61147D01*
X23673Y61171D01*
Y63952D01*
X27908Y63959D01*
X28138Y64014D01*
X28166Y64025D01*
Y58525D01*
X28144Y58534D01*
X28028Y58562D01*
X27910Y58571D01*
X27792Y58562D01*
X27676Y58535D01*
X27566Y58489D01*
X27465Y58427D01*
X27375Y58351D01*
X27297Y58260D01*
X27235Y58159D01*
X27189Y58050D01*
X27162Y57934D01*
X27152Y57816D01*
X27161Y57697D01*
X27189Y57582D01*
X27236Y57473D01*
X27394Y57133D01*
X27515Y56777D01*
X27603Y56412D01*
X27655Y56040D01*
X27673Y55665D01*
X27655Y55290D01*
X27603Y54918D01*
X27515Y54553D01*
X27394Y54197D01*
X27240Y53855D01*
X27193Y53747D01*
X27166Y53632D01*
X27156Y53514D01*
X27166Y53397D01*
X27194Y53282D01*
X27239Y53173D01*
X27301Y53072D01*
X27378Y52983D01*
X27468Y52906D01*
X27568Y52845D01*
X27677Y52800D01*
X27792Y52772D01*
X27910Y52763D01*
X28028Y52773D01*
X28142Y52800D01*
X28166Y52810D01*
Y45081D01*
G37*
G36*
Y28076D02*X28124Y28124D01*
X26247Y29728D01*
X24142Y31018D01*
X23673Y31212D01*
Y36369D01*
X24536Y36437D01*
X25378Y36639D01*
X26178Y36970D01*
X26916Y37423D01*
X27574Y37985D01*
X28136Y38643D01*
X28166Y38691D01*
Y28076D01*
G37*
G36*
Y2000D02*X23673D01*
Y2788D01*
X24142Y2982D01*
X26247Y4272D01*
X28124Y5876D01*
X28166Y5924D01*
Y2000D01*
G37*
G36*
X23673Y123000D02*X28166D01*
Y119076D01*
X28124Y119124D01*
X26247Y120728D01*
X24142Y122018D01*
X23673Y122212D01*
Y123000D01*
G37*
G36*
X19180Y64025D02*X19208Y64014D01*
X19438Y63959D01*
X19673Y63945D01*
X23673Y63952D01*
Y61171D01*
X23673D01*
X23157Y61147D01*
X22645Y61074D01*
X22142Y60954D01*
X21653Y60787D01*
X21181Y60575D01*
X21080Y60514D01*
X20989Y60437D01*
X20912Y60347D01*
X20850Y60245D01*
X20804Y60136D01*
X20776Y60020D01*
X20767Y59902D01*
X20776Y59784D01*
X20803Y59668D01*
X20849Y59558D01*
X20911Y59457D01*
X20987Y59367D01*
X21078Y59289D01*
X21179Y59227D01*
X21288Y59181D01*
X21404Y59154D01*
X21522Y59144D01*
X21641Y59153D01*
X21756Y59181D01*
X21865Y59228D01*
X22205Y59386D01*
X22561Y59507D01*
X22926Y59595D01*
X23298Y59647D01*
X23673Y59665D01*
Y51665D01*
X23298Y51683D01*
X22926Y51735D01*
X22561Y51823D01*
X22205Y51944D01*
X21863Y52098D01*
X21755Y52145D01*
X21640Y52172D01*
X21522Y52182D01*
X21405Y52172D01*
X21290Y52144D01*
X21181Y52099D01*
X21080Y52037D01*
X20991Y51960D01*
X20914Y51870D01*
X20853Y51770D01*
X20808Y51661D01*
X20780Y51546D01*
X20771Y51428D01*
X20781Y51310D01*
X20808Y51196D01*
X20854Y51087D01*
X20916Y50986D01*
X20992Y50896D01*
X21082Y50820D01*
X21184Y50760D01*
X21653Y50543D01*
X22142Y50376D01*
X22645Y50256D01*
X23157Y50183D01*
X23673Y50159D01*
X23673D01*
Y47403D01*
X22810Y47335D01*
X21968Y47133D01*
X21168Y46802D01*
X20430Y46349D01*
X19772Y45787D01*
X19210Y45129D01*
X19180Y45081D01*
Y52805D01*
X19202Y52796D01*
X19318Y52768D01*
X19436Y52759D01*
X19554Y52768D01*
X19670Y52795D01*
X19780Y52841D01*
X19881Y52903D01*
X19971Y52979D01*
X20049Y53070D01*
X20111Y53171D01*
X20157Y53280D01*
X20184Y53396D01*
X20194Y53514D01*
X20185Y53633D01*
X20157Y53748D01*
X20110Y53857D01*
X19952Y54197D01*
X19831Y54553D01*
X19743Y54918D01*
X19691Y55290D01*
X19673Y55665D01*
X19691Y56040D01*
X19743Y56412D01*
X19831Y56777D01*
X19952Y57133D01*
X20106Y57475D01*
X20153Y57583D01*
X20180Y57698D01*
X20190Y57816D01*
X20180Y57933D01*
X20152Y58048D01*
X20107Y58157D01*
X20045Y58258D01*
X19968Y58347D01*
X19878Y58424D01*
X19778Y58485D01*
X19669Y58530D01*
X19554Y58558D01*
X19436Y58567D01*
X19318Y58557D01*
X19204Y58530D01*
X19180Y58520D01*
Y64025D01*
G37*
G36*
Y92439D02*X19461Y92461D01*
X21862Y93038D01*
X23673Y93788D01*
Y74938D01*
X19438Y74931D01*
X19208Y74876D01*
X19180Y74865D01*
Y92439D01*
G37*
G36*
X23673Y31212D02*X21862Y31962D01*
X19461Y32539D01*
X19180Y32561D01*
Y38691D01*
X19210Y38643D01*
X19772Y37985D01*
X20430Y37423D01*
X21168Y36970D01*
X21968Y36639D01*
X22810Y36437D01*
X23673Y36369D01*
Y31212D01*
G37*
G36*
X19180Y32561D02*X17000Y32732D01*
X14539Y32539D01*
X12138Y31962D01*
X9858Y31018D01*
X7753Y29728D01*
X5876Y28124D01*
X4272Y26247D01*
X2982Y24142D01*
X2038Y21862D01*
X2000Y21705D01*
Y103295D01*
X2038Y103138D01*
X2982Y100858D01*
X4272Y98753D01*
X5876Y96876D01*
X7753Y95272D01*
X9858Y93982D01*
X12138Y93038D01*
X14539Y92461D01*
X17000Y92268D01*
X19180Y92439D01*
Y74865D01*
X18990Y74786D01*
X18789Y74662D01*
X18609Y74509D01*
X18456Y74329D01*
X18332Y74128D01*
X18242Y73910D01*
X18187Y73680D01*
X18173Y73445D01*
X18187Y65210D01*
X18242Y64980D01*
X18332Y64762D01*
X18456Y64561D01*
X18609Y64381D01*
X18789Y64228D01*
X18990Y64104D01*
X19180Y64025D01*
Y58520D01*
X19095Y58484D01*
X18994Y58422D01*
X18904Y58346D01*
X18828Y58256D01*
X18768Y58154D01*
X18551Y57685D01*
X18384Y57196D01*
X18264Y56693D01*
X18191Y56181D01*
X18167Y55665D01*
X18191Y55149D01*
X18264Y54637D01*
X18384Y54134D01*
X18551Y53645D01*
X18763Y53173D01*
X18824Y53072D01*
X18901Y52981D01*
X18991Y52904D01*
X19093Y52842D01*
X19180Y52805D01*
Y45081D01*
X18757Y44391D01*
X18426Y43591D01*
X18224Y42749D01*
X18156Y41886D01*
X18224Y41023D01*
X18426Y40181D01*
X18757Y39381D01*
X19180Y38691D01*
Y32561D01*
G37*
G36*
X23673Y2000D02*X21705D01*
X21862Y2038D01*
X23673Y2788D01*
Y2000D01*
G37*
G36*
X21705Y123000D02*X23673D01*
Y122212D01*
X21862Y122962D01*
X21705Y123000D01*
G37*
G54D35*X99000Y118500D02*Y107500D01*
X101500Y105000D01*
Y100500D01*
Y98000D02*Y102000D01*
X93500Y98500D02*X97500D01*
X94000Y95000D02*X95500Y96500D01*
X97500Y98500D02*X99000Y100000D01*
Y103000D01*
X104000D02*Y97500D01*
X95500Y96500D02*X100000D01*
X101500Y98000D01*
X104000Y97500D02*X101000Y94500D01*
X99000D01*
X97000Y92500D01*
Y74000D01*
X94500Y71500D01*
X83500Y81000D02*X90000D01*
X92000Y83000D01*
X88000Y85000D02*Y87500D01*
G54D36*X41500Y106500D02*Y94500D01*
Y106500D02*Y68500D01*
X55000Y55000D01*
Y17500D01*
G54D35*X57500Y68500D02*X91500D01*
X95500Y72500D01*
X92000Y83000D02*Y97000D01*
X93500Y98500D01*
X94000Y79000D02*Y95000D01*
X88000Y87000D02*Y97000D01*
X94000Y103000D01*
G54D37*X133500Y17000D03*
X133000Y108000D03*
X17000Y17000D03*
Y108000D03*
G54D34*G36*
X19673Y73445D02*Y65445D01*
X27673D01*
Y73445D01*
X19673D01*
G37*
G54D38*X23673Y55665D03*
Y41886D03*
G54D34*G36*
X80000Y26500D02*Y18500D01*
X88000D01*
Y26500D01*
X80000D01*
G37*
G36*
X90000Y55500D02*Y49500D01*
X96000D01*
Y55500D01*
X90000D01*
G37*
G54D38*X104000Y22500D03*
G54D39*X103000Y52500D03*
G54D34*G36*
X115000Y75500D02*Y69500D01*
X121000D01*
Y75500D01*
X115000D01*
G37*
G54D39*X119000Y62500D03*
X118000Y52500D03*
G54D34*G36*
X133500Y75500D02*Y69500D01*
X139500D01*
Y75500D01*
X133500D01*
G37*
G54D39*X137500Y62500D03*
X136500Y52500D03*
G54D40*X58500Y106500D03*
Y102500D03*
Y98500D03*
X62500D03*
X66500D03*
X104000Y118500D03*
X99000Y103000D03*
X94000D03*
X99000Y118500D03*
X104000Y103000D03*
X66500Y94500D03*
X88000Y85000D03*
X83500Y81000D03*
X94000Y79000D03*
X62500Y94500D03*
X71000Y26500D03*
X58500Y94500D03*
X41500Y98500D03*
Y102500D03*
Y106500D03*
X54500Y94500D03*
Y90500D03*
X57500Y68500D03*
X55000Y25500D03*
Y21500D03*
Y17500D03*
G54D41*G54D42*G54D41*G54D42*G54D41*G54D42*G54D41*G54D42*G54D41*G54D42*G54D43*G54D44*G54D43*G54D45*G54D46*G54D47*G54D46*G54D47*M02*
