G04 start of page 9 for group -4079 idx -4079 *
G04 Title: (unknown), topsilk *
G04 Creator: pcb 20140316 *
G04 CreationDate: Tue 12 Jul 2016 01:46:57 AM GMT UTC *
G04 For: ndholmes *
G04 Format: Gerber/RS-274X *
G04 PCB-Dimensions (mil): 1500.00 1250.00 *
G04 PCB-Coordinate-Origin: lower left *
%MOIN*%
%FSLAX25Y25*%
%LNTOPSILK*%
%ADD76C,0.0100*%
%ADD75C,0.0060*%
%ADD74C,0.0080*%
G54D74*X500Y500D02*X149500D01*
Y124500D01*
X500D01*
G54D75*X6500Y73000D02*X2500Y72000D01*
X6500Y71000D01*
Y69800D02*Y68800D01*
X2500Y69300D02*X6500D01*
X2500Y69800D02*Y68800D01*
Y67600D02*X6500D01*
X2500Y65100D01*
X6500D01*
Y58000D02*X6000Y57500D01*
X6500Y59500D02*Y58000D01*
X6000Y60000D02*X6500Y59500D01*
X3000Y60000D02*X6000D01*
X3000D02*X2500Y59500D01*
Y58000D01*
X3000Y57500D01*
X4000D01*
X4500Y58000D02*X4000Y57500D01*
X4500Y59000D02*Y58000D01*
X2500Y56300D02*X6500D01*
X2500Y53800D01*
X6500D01*
X2500Y52100D02*X6500D01*
Y50800D02*X5800Y50100D01*
X3200D02*X5800D01*
X2500Y50800D02*X3200Y50100D01*
X2500Y52600D02*Y50800D01*
X6500Y52600D02*Y50800D01*
X2500Y45800D02*Y44500D01*
X3200Y46500D02*X2500Y45800D01*
X3200Y46500D02*X5800D01*
X6500Y45800D01*
Y44500D01*
Y43300D02*Y41300D01*
X2500Y42300D02*X6500D01*
Y40100D02*Y38100D01*
X6000Y37600D01*
X5000D02*X6000D01*
X4500Y38100D02*X5000Y37600D01*
X4500Y39600D02*Y38100D01*
X2500Y39600D02*X6500D01*
X4500Y38800D02*X2500Y37600D01*
Y36400D02*X6500D01*
X2500D02*Y34400D01*
X72000Y46000D02*X72500Y45500D01*
X70500Y46000D02*X72000D01*
X70000Y45500D02*X70500Y46000D01*
X70000Y45500D02*Y44500D01*
X70500Y44000D01*
X72000D01*
X72500Y43500D01*
Y42500D01*
X72000Y42000D02*X72500Y42500D01*
X70500Y42000D02*X72000D01*
X70000Y42500D02*X70500Y42000D01*
X73700Y46000D02*Y42000D01*
X76200Y46000D02*Y42000D01*
X73700Y44000D02*X76200D01*
X77400Y46000D02*Y42500D01*
X77900Y42000D01*
X78900D01*
X79400Y42500D01*
Y46000D02*Y42500D01*
X80600Y46000D02*Y42000D01*
Y46000D02*X83100Y42000D01*
Y46000D02*Y42000D01*
X84300Y46000D02*X86300D01*
X85300D02*Y42000D01*
X90000Y46000D02*X90800D01*
Y42500D01*
X90300Y42000D02*X90800Y42500D01*
X89800Y42000D02*X90300D01*
X89300Y42500D02*X89800Y42000D01*
X89300Y43000D02*Y42500D01*
X92500Y46000D02*Y42000D01*
X92000Y46000D02*X94000D01*
X94500Y45500D01*
Y44500D01*
X94000Y44000D02*X94500Y44500D01*
X92500Y44000D02*X94000D01*
X95700Y45200D02*X96500Y46000D01*
Y42000D01*
X95700D02*X97200D01*
X100200Y46000D02*X102200D01*
X101200D02*Y42000D01*
X103400Y45500D02*Y42500D01*
Y45500D02*X103900Y46000D01*
X104900D01*
X105400Y45500D01*
Y42500D01*
X104900Y42000D02*X105400Y42500D01*
X103900Y42000D02*X104900D01*
X103400Y42500D02*X103900Y42000D01*
X108400Y46000D02*X110400D01*
X110900Y45500D01*
Y44500D01*
X110400Y44000D02*X110900Y44500D01*
X108900Y44000D02*X110400D01*
X108900Y46000D02*Y42000D01*
X109700Y44000D02*X110900Y42000D01*
X112100Y44200D02*X113600D01*
X112100Y42000D02*X114100D01*
X112100Y46000D02*Y42000D01*
Y46000D02*X114100D01*
X115300D02*X116300Y42000D01*
X117300Y46000D01*
X120800D02*Y42000D01*
X122100Y46000D02*X122800Y45300D01*
Y42700D01*
X122100Y42000D02*X122800Y42700D01*
X120300Y42000D02*X122100D01*
X120300Y46000D02*X122100D01*
X124000D02*X125000D01*
X124500D02*Y42000D01*
X124000D02*X125000D01*
X126200Y46000D02*X128200D01*
X128700Y45500D01*
Y44500D01*
X128200Y44000D02*X128700Y44500D01*
X126700Y44000D02*X128200D01*
X126700Y46000D02*Y42000D01*
X127500Y44000D02*X128700Y42000D01*
X129900Y44200D02*X131400D01*
X129900Y42000D02*X131900D01*
X129900Y46000D02*Y42000D01*
Y46000D02*X131900D01*
X133800Y42000D02*X135100D01*
X133100Y42700D02*X133800Y42000D01*
X133100Y45300D02*Y42700D01*
Y45300D02*X133800Y46000D01*
X135100D01*
X136300D02*X138300D01*
X137300D02*Y42000D01*
X139500Y46000D02*X140500D01*
X140000D02*Y42000D01*
X139500D02*X140500D01*
X141700Y45500D02*Y42500D01*
Y45500D02*X142200Y46000D01*
X143200D01*
X143700Y45500D01*
Y42500D01*
X143200Y42000D02*X143700Y42500D01*
X142200Y42000D02*X143200D01*
X141700Y42500D02*X142200Y42000D01*
X144900Y46000D02*Y42000D01*
Y46000D02*X147400Y42000D01*
Y46000D02*Y42000D01*
X77000Y8000D02*X77500Y7500D01*
X75500Y8000D02*X77000D01*
X75000Y7500D02*X75500Y8000D01*
X75000Y7500D02*Y6500D01*
X75500Y6000D01*
X77000D01*
X77500Y5500D01*
Y4500D01*
X77000Y4000D02*X77500Y4500D01*
X75500Y4000D02*X77000D01*
X75000Y4500D02*X75500Y4000D01*
X78700Y8000D02*Y6000D01*
X79200Y4000D01*
X80200Y6000D01*
X81200Y4000D01*
X81700Y6000D01*
Y8000D02*Y6000D01*
X82900Y8000D02*X83900D01*
X83400D02*Y4000D01*
X82900D02*X83900D01*
X85100Y8000D02*X87100D01*
X86100D02*Y4000D01*
X89000D02*X90300D01*
X88300Y4700D02*X89000Y4000D01*
X88300Y7300D02*Y4700D01*
Y7300D02*X89000Y8000D01*
X90300D01*
X91500D02*Y4000D01*
X94000Y8000D02*Y4000D01*
X91500Y6000D02*X94000D01*
X97000Y8000D02*Y4000D01*
Y8000D02*X98500Y6000D01*
X100000Y8000D01*
Y4000D01*
X101200Y7500D02*Y4500D01*
Y7500D02*X101700Y8000D01*
X102700D01*
X103200Y7500D01*
Y4500D01*
X102700Y4000D02*X103200Y4500D01*
X101700Y4000D02*X102700D01*
X101200Y4500D02*X101700Y4000D01*
X104400Y8000D02*X106400D01*
X105400D02*Y4000D01*
X107600Y7500D02*Y4500D01*
Y7500D02*X108100Y8000D01*
X109100D01*
X109600Y7500D01*
Y4500D01*
X109100Y4000D02*X109600Y4500D01*
X108100Y4000D02*X109100D01*
X107600Y4500D02*X108100Y4000D01*
X110800Y8000D02*X112800D01*
X113300Y7500D01*
Y6500D01*
X112800Y6000D02*X113300Y6500D01*
X111300Y6000D02*X112800D01*
X111300Y8000D02*Y4000D01*
X112100Y6000D02*X113300Y4000D01*
X38000Y29000D02*X40000D01*
X39000Y30000D02*Y28000D01*
G54D76*X46607Y30245D02*X47393D01*
X46607Y35755D02*X47393D01*
X63455Y30320D02*X64241D01*
X63455Y35830D02*X64241D01*
X37500Y24500D02*Y5500D01*
X68500D01*
Y24500D01*
X37500D02*X50500D01*
X68500D02*X55500D01*
X50500D02*G75*G03X55500Y24500I2500J0D01*G01*
X74000Y9700D02*X114000D01*
X74000Y39700D02*X114000D01*
X74000Y35300D02*X114000D01*
X74000Y39700D02*Y9700D01*
X114000Y39700D02*Y9700D01*
X113000Y77500D02*Y47500D01*
X123000D01*
Y77500D02*X113000D01*
Y67500D02*X123000D01*
Y65500D02*Y77500D01*
Y47500D02*Y59500D01*
X131500Y77500D02*Y47500D01*
X141500D01*
Y77500D02*X131500D01*
Y67500D02*X141500D01*
Y65500D02*Y77500D01*
Y47500D02*Y59500D01*
X59607Y79745D02*X60393D01*
X59607Y85255D02*X60393D01*
X17100Y90500D02*X36800D01*
X17100Y82500D02*X36800D01*
Y90500D02*Y82500D01*
X17100Y90500D02*Y82500D01*
X30000Y90500D02*Y82500D01*
X75814Y113468D02*Y109532D01*
X65186Y113468D02*Y109532D01*
X44607Y95755D02*X45393D01*
X44607Y90245D02*X45393D01*
X60250Y114480D02*Y103850D01*
X41750Y114480D02*Y103850D01*
X57000D02*X60250D01*
X41750D02*X45000D01*
X60071Y114480D02*X60250D01*
X41750D02*X41929D01*
X9500Y78500D02*Y32831D01*
X37059D01*
Y78500D02*Y32831D01*
X9500Y78500D02*X37059D01*
X41934Y76488D02*Y65512D01*
X73066D01*
Y76488D02*Y65512D01*
X41934Y76488D02*X55000D01*
X60000D02*X73066D01*
X55000D02*G75*G03X60000Y76488I2500J0D01*G01*
X69701Y61390D02*X82299D01*
Y47610D01*
X69701D02*X82299D01*
X69701Y61390D02*Y47610D01*
X88000Y47500D02*X108000D01*
Y57500D02*Y47500D01*
X88000Y57500D02*X108000D01*
X88000D02*Y47500D01*
X98000Y57500D02*Y47500D01*
X88000Y57500D02*X98000D01*
G54D75*X30500Y7000D02*Y3500D01*
X31000Y3000D01*
X32000D01*
X32500Y3500D01*
Y7000D02*Y3500D01*
X33700Y6500D02*X34200Y7000D01*
X35200D01*
X35700Y6500D01*
X35200Y3000D02*X35700Y3500D01*
X34200Y3000D02*X35200D01*
X33700Y3500D02*X34200Y3000D01*
Y5200D02*X35200D01*
X35700Y6500D02*Y5700D01*
Y4700D02*Y3500D01*
Y4700D02*X35200Y5200D01*
X35700Y5700D02*X35200Y5200D01*
X132700Y84500D02*X133500D01*
Y81000D01*
X133000Y80500D02*X133500Y81000D01*
X132500Y80500D02*X133000D01*
X132000Y81000D02*X132500Y80500D01*
X132000Y81500D02*Y81000D01*
X134700Y84000D02*X135200Y84500D01*
X136200D01*
X136700Y84000D01*
X136200Y80500D02*X136700Y81000D01*
X135200Y80500D02*X136200D01*
X134700Y81000D02*X135200Y80500D01*
Y82700D02*X136200D01*
X136700Y84000D02*Y83200D01*
Y82200D02*Y81000D01*
Y82200D02*X136200Y82700D01*
X136700Y83200D02*X136200Y82700D01*
X137900Y83500D02*Y80500D01*
Y83500D02*X138600Y84500D01*
X139700D01*
X140400Y83500D01*
Y80500D01*
X137900Y82500D02*X140400D01*
X68200Y83500D02*X69500D01*
X67500Y84200D02*X68200Y83500D01*
X67500Y86800D02*Y84200D01*
Y86800D02*X68200Y87500D01*
X69500D01*
X70700Y87000D02*X71200Y87500D01*
X72200D01*
X72700Y87000D01*
X72200Y83500D02*X72700Y84000D01*
X71200Y83500D02*X72200D01*
X70700Y84000D02*X71200Y83500D01*
Y85700D02*X72200D01*
X72700Y87000D02*Y86200D01*
Y85200D02*Y84000D01*
Y85200D02*X72200Y85700D01*
X72700Y86200D02*X72200Y85700D01*
X10000Y88500D02*Y84500D01*
X11300Y88500D02*X12000Y87800D01*
Y85200D01*
X11300Y84500D02*X12000Y85200D01*
X9500Y84500D02*X11300D01*
X9500Y88500D02*X11300D01*
X13200Y87700D02*X14000Y88500D01*
Y84500D01*
X13200D02*X14700D01*
X78700Y109500D02*X80000D01*
X78000Y110200D02*X78700Y109500D01*
X78000Y112800D02*Y110200D01*
Y112800D02*X78700Y113500D01*
X80000D01*
X81200Y113000D02*X81700Y113500D01*
X83200D01*
X83700Y113000D01*
Y112000D01*
X81200Y109500D02*X83700Y112000D01*
X81200Y109500D02*X83700D01*
X32200Y92500D02*X33500D01*
X31500Y93200D02*X32200Y92500D01*
X31500Y95800D02*Y93200D01*
Y95800D02*X32200Y96500D01*
X33500D01*
X34700Y95700D02*X35500Y96500D01*
Y92500D01*
X34700D02*X36200D01*
X34500Y107500D02*Y104000D01*
X35000Y103500D01*
X36000D01*
X36500Y104000D01*
Y107500D02*Y104000D01*
X37700Y106700D02*X38500Y107500D01*
Y103500D01*
X37700D02*X39200D01*
X110200Y101500D02*X111000D01*
Y98000D01*
X110500Y97500D02*X111000Y98000D01*
X110000Y97500D02*X110500D01*
X109500Y98000D02*X110000Y97500D01*
X109500Y98500D02*Y98000D01*
X112200Y99000D02*X114200Y101500D01*
X112200Y99000D02*X114700D01*
X114200Y101500D02*Y97500D01*
X115200Y84500D02*X116000D01*
Y81000D01*
X115500Y80500D02*X116000Y81000D01*
X115000Y80500D02*X115500D01*
X114500Y81000D02*X115000Y80500D01*
X114500Y81500D02*Y81000D01*
X117200Y84000D02*X117700Y84500D01*
X118700D01*
X119200Y84000D01*
X118700Y80500D02*X119200Y81000D01*
X117700Y80500D02*X118700D01*
X117200Y81000D02*X117700Y80500D01*
Y82700D02*X118700D01*
X119200Y84000D02*Y83200D01*
Y82200D02*Y81000D01*
Y82200D02*X118700Y82700D01*
X119200Y83200D02*X118700Y82700D01*
X117200Y33500D02*X118000D01*
Y30000D01*
X117500Y29500D02*X118000Y30000D01*
X117000Y29500D02*X117500D01*
X116500Y30000D02*X117000Y29500D01*
X116500Y30500D02*Y30000D01*
X119200Y33000D02*X119700Y33500D01*
X121200D01*
X121700Y33000D01*
Y32000D01*
X119200Y29500D02*X121700Y32000D01*
X119200Y29500D02*X121700D01*
X94700Y63000D02*X95500D01*
Y59500D01*
X95000Y59000D02*X95500Y59500D01*
X94500Y59000D02*X95000D01*
X94000Y59500D02*X94500Y59000D01*
X94000Y60000D02*Y59500D01*
X97200Y63000D02*Y59000D01*
X96700Y63000D02*X98700D01*
X99200Y62500D01*
Y61500D01*
X98700Y61000D02*X99200Y61500D01*
X97200Y61000D02*X98700D01*
X100400Y62200D02*X101200Y63000D01*
Y59000D01*
X100400D02*X101900D01*
X31200Y31000D02*X32000D01*
Y27500D01*
X31500Y27000D02*X32000Y27500D01*
X31000Y27000D02*X31500D01*
X30500Y27500D02*X31000Y27000D01*
X30500Y28000D02*Y27500D01*
X33200Y30200D02*X34000Y31000D01*
Y27000D01*
X33200D02*X34700D01*
X45500Y43000D02*Y39000D01*
X46800Y43000D02*X47500Y42300D01*
Y39700D01*
X46800Y39000D02*X47500Y39700D01*
X45000Y39000D02*X46800D01*
X45000Y43000D02*X46800D01*
X48700Y42500D02*X49200Y43000D01*
X50700D01*
X51200Y42500D01*
Y41500D01*
X48700Y39000D02*X51200Y41500D01*
X48700Y39000D02*X51200D01*
X60850Y43150D02*X62850D01*
X63350Y42650D01*
Y41650D01*
X62850Y41150D02*X63350Y41650D01*
X61350Y41150D02*X62850D01*
X61350Y43150D02*Y39150D01*
X62150Y41150D02*X63350Y39150D01*
X64550Y42650D02*X65050Y43150D01*
X66550D01*
X67050Y42650D01*
Y41650D01*
X64550Y39150D02*X67050Y41650D01*
X64550Y39150D02*X67050D01*
X62428Y56376D02*X64428D01*
X64928Y55876D01*
Y54876D01*
X64428Y54376D02*X64928Y54876D01*
X62928Y54376D02*X64428D01*
X62928Y56376D02*Y52376D01*
X63728Y54376D02*X64928Y52376D01*
X66128Y55576D02*X66928Y56376D01*
Y52376D01*
X66128D02*X67628D01*
X42000Y83000D02*Y79500D01*
X42500Y79000D01*
X43500D01*
X44000Y79500D01*
Y83000D02*Y79500D01*
X45200Y82500D02*X45700Y83000D01*
X47200D01*
X47700Y82500D01*
Y81500D01*
X45200Y79000D02*X47700Y81500D01*
X45200Y79000D02*X47700D01*
M02*
