M48
INCH
T54C0.015
T53C0.014
T52C0.038
T51C0.048
T50C0.047
T49C0.129
%
T53
X005450Y009450
X005450Y009050
X005850Y010650
X005850Y010250
X005850Y009850
X005850Y009450
X006250Y009850
X006250Y009450
X006650Y009850
X006650Y009450
X008800Y008500
X009400Y010300
X009900Y011850
X009900Y010300
X010400Y011850
T54
X004150Y010650
X004150Y010250
X004150Y009850
X005500Y002550
X005500Y002150
X005500Y001750
X005750Y006850
X007100Y002650
X008350Y008100
X009400Y007900
X010400Y010300
T52
X009300Y005250
X010300Y005250
X011800Y007250
X011800Y005250
X011900Y006250
X013650Y007250
X013650Y005250
X013750Y006250
T50
X002367Y006944
X002367Y005566
X002367Y004189
T51
X008400Y002250
X010400Y002250
T49
X001700Y010800
X001700Y001700
X013300Y010800
X013350Y001700
M30
